<svg width="97" height="12" viewBox="0 0 97 12" fill="none" xmlns="http://www.w3.org/2000/svg">
<path opacity="0.351679" d="M4.464 9.132C3.944 9.132 3.448 9.04 2.976 8.856C2.504 8.664 2.092 8.396 1.74 8.052C1.388 7.7 1.108 7.28 0.9 6.792C0.692 6.296 0.588 5.74 0.588 5.124C0.588 4.516 0.692 3.968 0.9 3.48C1.108 2.992 1.388 2.576 1.74 2.232C2.092 1.888 2.504 1.624 2.976 1.44C3.448 1.256 3.944 1.164 4.464 1.164C4.984 1.164 5.476 1.256 5.94 1.44C6.412 1.624 6.824 1.888 7.176 2.232C7.536 2.576 7.82 2.992 8.028 3.48C8.236 3.968 8.34 4.516 8.34 5.124C8.34 5.74 8.236 6.296 8.028 6.792C7.82 7.28 7.536 7.7 7.176 8.052C6.824 8.396 6.412 8.664 5.94 8.856C5.476 9.04 4.984 9.132 4.464 9.132ZM4.464 8.628C4.92 8.628 5.348 8.544 5.748 8.376C6.148 8.208 6.496 7.972 6.792 7.668C7.096 7.356 7.336 6.988 7.512 6.564C7.688 6.132 7.776 5.652 7.776 5.124C7.776 4.604 7.688 4.132 7.512 3.708C7.336 3.276 7.096 2.908 6.792 2.604C6.496 2.3 6.148 2.068 5.748 1.908C5.348 1.74 4.92 1.656 4.464 1.656C4.008 1.656 3.58 1.74 3.18 1.908C2.78 2.068 2.428 2.3 2.124 2.604C1.828 2.908 1.592 3.276 1.416 3.708C1.24 4.132 1.152 4.604 1.152 5.124C1.152 5.652 1.24 6.132 1.416 6.564C1.592 6.988 1.828 7.356 2.124 7.668C2.428 7.972 2.78 8.208 3.18 8.376C3.58 8.544 4.008 8.628 4.464 8.628ZM4.56 7.5C4.256 7.5 3.972 7.448 3.708 7.344C3.444 7.232 3.212 7.076 3.012 6.876C2.812 6.668 2.656 6.42 2.544 6.132C2.432 5.836 2.376 5.5 2.376 5.124C2.376 4.78 2.436 4.468 2.556 4.188C2.684 3.908 2.848 3.668 3.048 3.468C3.256 3.268 3.492 3.116 3.756 3.012C4.028 2.908 4.308 2.856 4.596 2.856C4.932 2.856 5.216 2.924 5.448 3.06C5.688 3.188 5.904 3.348 6.096 3.54L5.676 4.008C5.516 3.848 5.352 3.728 5.184 3.648C5.024 3.56 4.84 3.516 4.632 3.516C4.192 3.516 3.836 3.668 3.564 3.972C3.3 4.268 3.168 4.652 3.168 5.124C3.168 5.652 3.296 6.072 3.552 6.384C3.816 6.688 4.164 6.84 4.596 6.84C4.852 6.84 5.076 6.792 5.268 6.696C5.46 6.592 5.644 6.464 5.82 6.312L6.18 6.816C5.956 7.008 5.72 7.172 5.472 7.308C5.224 7.436 4.92 7.5 4.56 7.5ZM9.91369 9V0.456H10.8977V2.784L10.8617 3.984C11.1417 3.72 11.4337 3.496 11.7377 3.312C12.0417 3.12 12.3977 3.024 12.8057 3.024C13.4217 3.024 13.8697 3.216 14.1497 3.6C14.4377 3.984 14.5817 4.552 14.5817 5.304V9H13.5977V5.436C13.5977 4.884 13.5097 4.488 13.3337 4.248C13.1577 4 12.8777 3.876 12.4937 3.876C12.1897 3.876 11.9217 3.952 11.6897 4.104C11.4577 4.256 11.1937 4.48 10.8977 4.776V9H9.91369ZM18.805 9.144C18.413 9.144 18.045 9.076 17.701 8.94C17.365 8.796 17.069 8.596 16.813 8.34C16.565 8.076 16.369 7.756 16.225 7.38C16.081 7.004 16.009 6.576 16.009 6.096C16.009 5.616 16.081 5.188 16.225 4.812C16.377 4.428 16.573 4.104 16.813 3.84C17.061 3.576 17.341 3.376 17.653 3.24C17.965 3.096 18.289 3.024 18.625 3.024C18.993 3.024 19.321 3.088 19.609 3.216C19.905 3.344 20.149 3.528 20.341 3.768C20.541 4.008 20.693 4.296 20.797 4.632C20.901 4.968 20.953 5.344 20.953 5.76C20.953 5.864 20.949 5.968 20.941 6.072C20.941 6.168 20.933 6.252 20.917 6.324H16.981C17.021 6.948 17.213 7.444 17.557 7.812C17.909 8.172 18.365 8.352 18.925 8.352C19.205 8.352 19.461 8.312 19.693 8.232C19.933 8.144 20.161 8.032 20.377 7.896L20.725 8.544C20.469 8.704 20.185 8.844 19.873 8.964C19.561 9.084 19.205 9.144 18.805 9.144ZM16.969 5.616H20.089C20.089 5.024 19.961 4.576 19.705 4.272C19.457 3.96 19.105 3.804 18.649 3.804C18.441 3.804 18.241 3.844 18.049 3.924C17.865 4.004 17.697 4.124 17.545 4.284C17.393 4.436 17.265 4.624 17.161 4.848C17.065 5.072 17.001 5.328 16.969 5.616ZM23.5741 9.144C23.0861 9.144 22.6781 9 22.3501 8.712C22.0301 8.424 21.8701 8.016 21.8701 7.488C21.8701 6.848 22.1541 6.36 22.7221 6.024C23.2901 5.68 24.1981 5.44 25.4461 5.304C25.4461 5.12 25.4261 4.94 25.3861 4.764C25.3541 4.588 25.2941 4.432 25.2061 4.296C25.1181 4.16 24.9941 4.052 24.8341 3.972C24.6821 3.884 24.4861 3.84 24.2461 3.84C23.9101 3.84 23.5941 3.904 23.2981 4.032C23.0021 4.16 22.7381 4.304 22.5061 4.464L22.1221 3.78C22.3941 3.604 22.7261 3.436 23.1181 3.276C23.5101 3.108 23.9421 3.024 24.4141 3.024C25.1261 3.024 25.6421 3.244 25.9621 3.684C26.2821 4.116 26.4421 4.696 26.4421 5.424V9H25.6261L25.5421 8.304H25.5061C25.2261 8.536 24.9261 8.736 24.6061 8.904C24.2861 9.064 23.9421 9.144 23.5741 9.144ZM23.8621 8.352C24.1421 8.352 24.4061 8.288 24.6541 8.16C24.9021 8.024 25.1661 7.828 25.4461 7.572V5.952C24.9581 6.016 24.5461 6.092 24.2101 6.18C23.8821 6.268 23.6141 6.372 23.4061 6.492C23.2061 6.612 23.0581 6.752 22.9621 6.912C22.8741 7.064 22.8301 7.232 22.8301 7.416C22.8301 7.752 22.9301 7.992 23.1301 8.136C23.3301 8.28 23.5741 8.352 23.8621 8.352ZM30.269 9.144C29.533 9.144 28.945 8.88 28.505 8.352C28.073 7.824 27.857 7.072 27.857 6.096C27.857 5.624 27.925 5.2 28.061 4.824C28.205 4.44 28.393 4.116 28.625 3.852C28.857 3.588 29.125 3.384 29.429 3.24C29.733 3.096 30.053 3.024 30.389 3.024C30.725 3.024 31.017 3.084 31.265 3.204C31.513 3.324 31.765 3.488 32.021 3.696L31.973 2.7V0.456H32.969V9H32.153L32.069 8.316H32.033C31.801 8.54 31.533 8.736 31.229 8.904C30.933 9.064 30.613 9.144 30.269 9.144ZM30.485 8.316C30.757 8.316 31.013 8.252 31.253 8.124C31.493 7.988 31.733 7.784 31.973 7.512V4.464C31.725 4.24 31.485 4.084 31.253 3.996C31.029 3.9 30.797 3.852 30.557 3.852C30.325 3.852 30.105 3.908 29.897 4.02C29.697 4.124 29.521 4.276 29.369 4.476C29.217 4.668 29.097 4.9 29.009 5.172C28.921 5.444 28.877 5.748 28.877 6.084C28.877 6.788 29.017 7.336 29.297 7.728C29.577 8.12 29.973 8.316 30.485 8.316ZM34.9332 11.46V3.168H35.7492L35.8332 3.84H35.8692C36.1332 3.616 36.4212 3.424 36.7332 3.264C37.0532 3.104 37.3852 3.024 37.7292 3.024C38.1052 3.024 38.4372 3.096 38.7252 3.24C39.0132 3.376 39.2532 3.576 39.4452 3.84C39.6372 4.096 39.7812 4.408 39.8772 4.776C39.9812 5.136 40.0332 5.544 40.0332 6C40.0332 6.496 39.9652 6.94 39.8292 7.332C39.6932 7.716 39.5092 8.044 39.2772 8.316C39.0452 8.588 38.7772 8.796 38.4732 8.94C38.1692 9.076 37.8492 9.144 37.5132 9.144C37.2412 9.144 36.9692 9.084 36.6972 8.964C36.4332 8.844 36.1652 8.68 35.8932 8.472L35.9172 9.492V11.46H34.9332ZM37.3452 8.316C37.5852 8.316 37.8052 8.264 38.0052 8.16C38.2132 8.048 38.3892 7.896 38.5332 7.704C38.6852 7.504 38.8012 7.26 38.8812 6.972C38.9692 6.684 39.0132 6.36 39.0132 6C39.0132 5.68 38.9852 5.388 38.9292 5.124C38.8732 4.86 38.7812 4.636 38.6532 4.452C38.5332 4.26 38.3732 4.112 38.1732 4.008C37.9812 3.904 37.7492 3.852 37.4772 3.852C37.2292 3.852 36.9772 3.92 36.7212 4.056C36.4732 4.192 36.2052 4.388 35.9172 4.644V7.704C36.1812 7.928 36.4372 8.088 36.6852 8.184C36.9332 8.272 37.1532 8.316 37.3452 8.316ZM41.5895 9V0.456H42.5735V2.784L42.5375 3.984C42.8175 3.72 43.1095 3.496 43.4135 3.312C43.7175 3.12 44.0735 3.024 44.4815 3.024C45.0975 3.024 45.5455 3.216 45.8255 3.6C46.1135 3.984 46.2575 4.552 46.2575 5.304V9H45.2735V5.436C45.2735 4.884 45.1855 4.488 45.0095 4.248C44.8335 4 44.5535 3.876 44.1695 3.876C43.8655 3.876 43.5975 3.952 43.3655 4.104C43.1335 4.256 42.8695 4.48 42.5735 4.776V9H41.5895ZM50.3848 9.144C50.0248 9.144 49.6808 9.076 49.3528 8.94C49.0328 8.804 48.7488 8.608 48.5008 8.352C48.2528 8.088 48.0528 7.768 47.9008 7.392C47.7568 7.008 47.6848 6.576 47.6848 6.096C47.6848 5.608 47.7568 5.176 47.9008 4.8C48.0528 4.416 48.2528 4.092 48.5008 3.828C48.7488 3.564 49.0328 3.364 49.3528 3.228C49.6808 3.092 50.0248 3.024 50.3848 3.024C50.7448 3.024 51.0848 3.092 51.4048 3.228C51.7328 3.364 52.0208 3.564 52.2688 3.828C52.5168 4.092 52.7128 4.416 52.8568 4.8C53.0088 5.176 53.0848 5.608 53.0848 6.096C53.0848 6.576 53.0088 7.008 52.8568 7.392C52.7128 7.768 52.5168 8.088 52.2688 8.352C52.0208 8.608 51.7328 8.804 51.4048 8.94C51.0848 9.076 50.7448 9.144 50.3848 9.144ZM50.3848 8.328C50.6328 8.328 50.8608 8.276 51.0688 8.172C51.2768 8.06 51.4528 7.908 51.5968 7.716C51.7488 7.516 51.8648 7.28 51.9448 7.008C52.0248 6.736 52.0648 6.432 52.0648 6.096C52.0648 5.76 52.0248 5.456 51.9448 5.184C51.8648 4.904 51.7488 4.664 51.5968 4.464C51.4528 4.264 51.2768 4.112 51.0688 4.008C50.8608 3.896 50.6328 3.84 50.3848 3.84C50.1368 3.84 49.9088 3.896 49.7008 4.008C49.4928 4.112 49.3128 4.264 49.1608 4.464C49.0168 4.664 48.9048 4.904 48.8248 5.184C48.7448 5.456 48.7048 5.76 48.7048 6.096C48.7048 6.432 48.7448 6.736 48.8248 7.008C48.9048 7.28 49.0168 7.516 49.1608 7.716C49.3128 7.908 49.4928 8.06 49.7008 8.172C49.9088 8.276 50.1368 8.328 50.3848 8.328ZM54.6207 9V3.168H55.4367L55.5207 4.008H55.5567C55.8367 3.728 56.1287 3.496 56.4327 3.312C56.7447 3.12 57.1047 3.024 57.5127 3.024C58.1287 3.024 58.5767 3.216 58.8567 3.6C59.1447 3.984 59.2887 4.552 59.2887 5.304V9H58.3047V5.436C58.3047 4.884 58.2167 4.488 58.0407 4.248C57.8647 4 57.5847 3.876 57.2007 3.876C56.8967 3.876 56.6287 3.952 56.3967 4.104C56.1647 4.256 55.9007 4.48 55.6047 4.776V9H54.6207ZM63.5472 9.144C63.1552 9.144 62.7872 9.076 62.4432 8.94C62.1072 8.796 61.8112 8.596 61.5552 8.34C61.3072 8.076 61.1112 7.756 60.9672 7.38C60.8232 7.004 60.7512 6.576 60.7512 6.096C60.7512 5.616 60.8232 5.188 60.9672 4.812C61.1192 4.428 61.3152 4.104 61.5552 3.84C61.8032 3.576 62.0832 3.376 62.3952 3.24C62.7072 3.096 63.0312 3.024 63.3672 3.024C63.7352 3.024 64.0632 3.088 64.3512 3.216C64.6472 3.344 64.8912 3.528 65.0832 3.768C65.2832 4.008 65.4352 4.296 65.5392 4.632C65.6432 4.968 65.6952 5.344 65.6952 5.76C65.6952 5.864 65.6912 5.968 65.6832 6.072C65.6832 6.168 65.6752 6.252 65.6592 6.324H61.7232C61.7632 6.948 61.9552 7.444 62.2992 7.812C62.6512 8.172 63.1072 8.352 63.6672 8.352C63.9472 8.352 64.2032 8.312 64.4352 8.232C64.6752 8.144 64.9032 8.032 65.1192 7.896L65.4672 8.544C65.2112 8.704 64.9272 8.844 64.6152 8.964C64.3032 9.084 63.9472 9.144 63.5472 9.144ZM61.7112 5.616H64.8312C64.8312 5.024 64.7032 4.576 64.4472 4.272C64.1992 3.96 63.8472 3.804 63.3912 3.804C63.1832 3.804 62.9832 3.844 62.7912 3.924C62.6072 4.004 62.4392 4.124 62.2872 4.284C62.1352 4.436 62.0072 4.624 61.9032 4.848C61.8072 5.072 61.7432 5.328 61.7112 5.616ZM68.6603 9.144C68.2443 9.144 67.8483 9.068 67.4723 8.916C67.0963 8.764 66.7683 8.572 66.4883 8.34L66.9803 7.68C67.2363 7.888 67.4963 8.056 67.7603 8.184C68.0323 8.312 68.3443 8.376 68.6963 8.376C69.0803 8.376 69.3683 8.288 69.5603 8.112C69.7523 7.936 69.8483 7.72 69.8483 7.464C69.8483 7.312 69.8083 7.18 69.7283 7.068C69.6483 6.956 69.5443 6.86 69.4163 6.78C69.2963 6.692 69.1563 6.616 68.9963 6.552C68.8363 6.488 68.6763 6.424 68.5163 6.36C68.3083 6.288 68.1003 6.208 67.8923 6.12C67.6843 6.024 67.4963 5.912 67.3283 5.784C67.1683 5.648 67.0363 5.492 66.9323 5.316C66.8283 5.14 66.7763 4.928 66.7763 4.68C66.7763 4.448 66.8203 4.232 66.9083 4.032C67.0043 3.824 67.1363 3.648 67.3043 3.504C67.4803 3.352 67.6923 3.236 67.9403 3.156C68.1883 3.068 68.4683 3.024 68.7803 3.024C69.1483 3.024 69.4843 3.088 69.7883 3.216C70.1003 3.344 70.3683 3.5 70.5923 3.684L70.1243 4.308C69.9243 4.156 69.7163 4.032 69.5003 3.936C69.2843 3.84 69.0483 3.792 68.7923 3.792C68.4243 3.792 68.1523 3.876 67.9763 4.044C67.8083 4.212 67.7243 4.408 67.7243 4.632C67.7243 4.768 67.7603 4.888 67.8323 4.992C67.9043 5.088 68.0003 5.176 68.1203 5.256C68.2403 5.328 68.3763 5.396 68.5283 5.46C68.6883 5.516 68.8523 5.576 69.0203 5.64C69.2283 5.72 69.4363 5.804 69.6443 5.892C69.8603 5.98 70.0523 6.092 70.2203 6.228C70.3883 6.356 70.5243 6.516 70.6283 6.708C70.7403 6.9 70.7963 7.132 70.7963 7.404C70.7963 7.644 70.7483 7.868 70.6523 8.076C70.5643 8.284 70.4283 8.468 70.2443 8.628C70.0683 8.788 69.8443 8.912 69.5723 9C69.3083 9.096 69.0043 9.144 68.6603 9.144ZM74.062 9V8.412C74.638 7.836 75.15 7.316 75.598 6.852C76.046 6.388 76.422 5.96 76.726 5.568C77.03 5.168 77.262 4.804 77.422 4.476C77.582 4.14 77.662 3.816 77.662 3.504C77.662 3.064 77.542 2.704 77.302 2.424C77.062 2.144 76.698 2.004 76.21 2.004C75.89 2.004 75.594 2.096 75.322 2.28C75.05 2.456 74.802 2.672 74.578 2.928L74.014 2.364C74.334 2.012 74.674 1.732 75.034 1.524C75.394 1.308 75.826 1.2 76.33 1.2C77.042 1.2 77.602 1.408 78.01 1.824C78.418 2.232 78.622 2.776 78.622 3.456C78.622 3.816 78.542 4.18 78.382 4.548C78.23 4.908 78.014 5.284 77.734 5.676C77.462 6.06 77.134 6.464 76.75 6.888C76.374 7.304 75.958 7.748 75.502 8.22C75.71 8.204 75.926 8.188 76.15 8.172C76.374 8.156 76.586 8.148 76.786 8.148H79.006V9H74.062ZM82.5349 9.144C81.7589 9.144 81.1549 8.8 80.7229 8.112C80.2909 7.424 80.0749 6.436 80.0749 5.148C80.0749 3.86 80.2909 2.88 80.7229 2.208C81.1549 1.536 81.7589 1.2 82.5349 1.2C83.3029 1.2 83.9029 1.536 84.3349 2.208C84.7669 2.88 84.9829 3.86 84.9829 5.148C84.9829 6.436 84.7669 7.424 84.3349 8.112C83.9029 8.8 83.3029 9.144 82.5349 9.144ZM82.5349 8.352C82.7589 8.352 82.9589 8.292 83.1349 8.172C83.3189 8.044 83.4749 7.852 83.6029 7.596C83.7389 7.332 83.8429 7 83.9149 6.6C83.9869 6.192 84.0229 5.708 84.0229 5.148C84.0229 4.588 83.9869 4.108 83.9149 3.708C83.8429 3.308 83.7389 2.984 83.6029 2.736C83.4749 2.48 83.3189 2.292 83.1349 2.172C82.9589 2.052 82.7589 1.992 82.5349 1.992C82.3109 1.992 82.1069 2.052 81.9229 2.172C81.7389 2.292 81.5789 2.48 81.4429 2.736C81.3149 2.984 81.2149 3.308 81.1429 3.708C81.0709 4.108 81.0349 4.588 81.0349 5.148C81.0349 6.268 81.1709 7.084 81.4429 7.596C81.7229 8.1 82.0869 8.352 82.5349 8.352ZM85.9917 9V8.412C86.5677 7.836 87.0797 7.316 87.5277 6.852C87.9757 6.388 88.3517 5.96 88.6557 5.568C88.9597 5.168 89.1917 4.804 89.3517 4.476C89.5117 4.14 89.5917 3.816 89.5917 3.504C89.5917 3.064 89.4717 2.704 89.2317 2.424C88.9917 2.144 88.6277 2.004 88.1397 2.004C87.8197 2.004 87.5237 2.096 87.2517 2.28C86.9797 2.456 86.7317 2.672 86.5077 2.928L85.9437 2.364C86.2637 2.012 86.6037 1.732 86.9637 1.524C87.3237 1.308 87.7557 1.2 88.2597 1.2C88.9717 1.2 89.5317 1.408 89.9397 1.824C90.3477 2.232 90.5517 2.776 90.5517 3.456C90.5517 3.816 90.4717 4.18 90.3117 4.548C90.1597 4.908 89.9437 5.284 89.6637 5.676C89.3917 6.06 89.0637 6.464 88.6797 6.888C88.3037 7.304 87.8877 7.748 87.4317 8.22C87.6397 8.204 87.8557 8.188 88.0797 8.172C88.3037 8.156 88.5157 8.148 88.7157 8.148H90.9357V9H85.9917ZM94.4646 9.144C93.6886 9.144 93.0846 8.8 92.6526 8.112C92.2206 7.424 92.0046 6.436 92.0046 5.148C92.0046 3.86 92.2206 2.88 92.6526 2.208C93.0846 1.536 93.6886 1.2 94.4646 1.2C95.2326 1.2 95.8326 1.536 96.2646 2.208C96.6966 2.88 96.9126 3.86 96.9126 5.148C96.9126 6.436 96.6966 7.424 96.2646 8.112C95.8326 8.8 95.2326 9.144 94.4646 9.144ZM94.4646 8.352C94.6886 8.352 94.8886 8.292 95.0646 8.172C95.2486 8.044 95.4046 7.852 95.5326 7.596C95.6686 7.332 95.7726 7 95.8446 6.6C95.9166 6.192 95.9526 5.708 95.9526 5.148C95.9526 4.588 95.9166 4.108 95.8446 3.708C95.7726 3.308 95.6686 2.984 95.5326 2.736C95.4046 2.48 95.2486 2.292 95.0646 2.172C94.8886 2.052 94.6886 1.992 94.4646 1.992C94.2406 1.992 94.0366 2.052 93.8526 2.172C93.6686 2.292 93.5086 2.48 93.3726 2.736C93.2446 2.984 93.1446 3.308 93.0726 3.708C93.0006 4.108 92.9646 4.588 92.9646 5.148C92.9646 6.268 93.1006 7.084 93.3726 7.596C93.6526 8.1 94.0166 8.352 94.4646 8.352Z" fill="white"/>
</svg>
